%TF.GenerationSoftware,KiCad,Pcbnew,5.1.6-c6e7f7d~87~ubuntu18.04.1*%
%TF.CreationDate,2020-07-27T20:58:04-04:00*%
%TF.ProjectId,nucleo-stlink-adapter,6e75636c-656f-42d7-9374-6c696e6b2d61,rev?*%
%TF.SameCoordinates,Original*%
%TF.FileFunction,Legend,Bot*%
%TF.FilePolarity,Positive*%
%FSLAX46Y46*%
G04 Gerber Fmt 4.6, Leading zero omitted, Abs format (unit mm)*
G04 Created by KiCad (PCBNEW 5.1.6-c6e7f7d~87~ubuntu18.04.1) date 2020-07-27 20:58:04*
%MOMM*%
%LPD*%
G01*
G04 APERTURE LIST*
%ADD10C,0.100000*%
G04 APERTURE END LIST*
D10*
X117095238Y-82607142D02*
X117142857Y-82654761D01*
X117285714Y-82702380D01*
X117380952Y-82702380D01*
X117523809Y-82654761D01*
X117619047Y-82559523D01*
X117666666Y-82464285D01*
X117714285Y-82273809D01*
X117714285Y-82130952D01*
X117666666Y-81940476D01*
X117619047Y-81845238D01*
X117523809Y-81750000D01*
X117380952Y-81702380D01*
X117285714Y-81702380D01*
X117142857Y-81750000D01*
X117095238Y-81797619D01*
X116095238Y-82607142D02*
X116142857Y-82654761D01*
X116285714Y-82702380D01*
X116380952Y-82702380D01*
X116523809Y-82654761D01*
X116619047Y-82559523D01*
X116666666Y-82464285D01*
X116714285Y-82273809D01*
X116714285Y-82130952D01*
X116666666Y-81940476D01*
X116619047Y-81845238D01*
X116523809Y-81750000D01*
X116380952Y-81702380D01*
X116285714Y-81702380D01*
X116142857Y-81750000D01*
X116095238Y-81797619D01*
X114571428Y-82178571D02*
X114428571Y-82226190D01*
X114380952Y-82273809D01*
X114333333Y-82369047D01*
X114333333Y-82511904D01*
X114380952Y-82607142D01*
X114428571Y-82654761D01*
X114523809Y-82702380D01*
X114904761Y-82702380D01*
X114904761Y-81702380D01*
X114571428Y-81702380D01*
X114476190Y-81750000D01*
X114428571Y-81797619D01*
X114380952Y-81892857D01*
X114380952Y-81988095D01*
X114428571Y-82083333D01*
X114476190Y-82130952D01*
X114571428Y-82178571D01*
X114904761Y-82178571D01*
X113714285Y-82226190D02*
X113714285Y-82702380D01*
X114047619Y-81702380D02*
X113714285Y-82226190D01*
X113380952Y-81702380D01*
X113047619Y-82321428D02*
X112285714Y-82321428D01*
X111857142Y-82654761D02*
X111714285Y-82702380D01*
X111476190Y-82702380D01*
X111380952Y-82654761D01*
X111333333Y-82607142D01*
X111285714Y-82511904D01*
X111285714Y-82416666D01*
X111333333Y-82321428D01*
X111380952Y-82273809D01*
X111476190Y-82226190D01*
X111666666Y-82178571D01*
X111761904Y-82130952D01*
X111809523Y-82083333D01*
X111857142Y-81988095D01*
X111857142Y-81892857D01*
X111809523Y-81797619D01*
X111761904Y-81750000D01*
X111666666Y-81702380D01*
X111428571Y-81702380D01*
X111285714Y-81750000D01*
X110904761Y-82416666D02*
X110428571Y-82416666D01*
X111000000Y-82702380D02*
X110666666Y-81702380D01*
X110333333Y-82702380D01*
X108809523Y-82035714D02*
X108809523Y-82702380D01*
X109047619Y-81654761D02*
X109285714Y-82369047D01*
X108666666Y-82369047D01*
X108285714Y-82607142D02*
X108238095Y-82654761D01*
X108285714Y-82702380D01*
X108333333Y-82654761D01*
X108285714Y-82607142D01*
X108285714Y-82702380D01*
X107619047Y-81702380D02*
X107523809Y-81702380D01*
X107428571Y-81750000D01*
X107380952Y-81797619D01*
X107333333Y-81892857D01*
X107285714Y-82083333D01*
X107285714Y-82321428D01*
X107333333Y-82511904D01*
X107380952Y-82607142D01*
X107428571Y-82654761D01*
X107523809Y-82702380D01*
X107619047Y-82702380D01*
X107714285Y-82654761D01*
X107761904Y-82607142D01*
X107809523Y-82511904D01*
X107857142Y-82321428D01*
X107857142Y-82083333D01*
X107809523Y-81892857D01*
X107761904Y-81797619D01*
X107714285Y-81750000D01*
X107619047Y-81702380D01*
X123250000Y-80035714D02*
X123250000Y-80845238D01*
X123297619Y-80940476D01*
X123345238Y-80988095D01*
X123440476Y-81035714D01*
X123583333Y-81035714D01*
X123678571Y-80988095D01*
X123250000Y-80654761D02*
X123345238Y-80702380D01*
X123535714Y-80702380D01*
X123630952Y-80654761D01*
X123678571Y-80607142D01*
X123726190Y-80511904D01*
X123726190Y-80226190D01*
X123678571Y-80130952D01*
X123630952Y-80083333D01*
X123535714Y-80035714D01*
X123345238Y-80035714D01*
X123250000Y-80083333D01*
X122773809Y-80702380D02*
X122773809Y-80035714D01*
X122773809Y-79702380D02*
X122821428Y-79750000D01*
X122773809Y-79797619D01*
X122726190Y-79750000D01*
X122773809Y-79702380D01*
X122773809Y-79797619D01*
X122440476Y-80035714D02*
X122059523Y-80035714D01*
X122297619Y-79702380D02*
X122297619Y-80559523D01*
X122250000Y-80654761D01*
X122154761Y-80702380D01*
X122059523Y-80702380D01*
X121726190Y-80702380D02*
X121726190Y-79702380D01*
X121297619Y-80702380D02*
X121297619Y-80178571D01*
X121345238Y-80083333D01*
X121440476Y-80035714D01*
X121583333Y-80035714D01*
X121678571Y-80083333D01*
X121726190Y-80130952D01*
X120392857Y-80035714D02*
X120392857Y-80702380D01*
X120821428Y-80035714D02*
X120821428Y-80559523D01*
X120773809Y-80654761D01*
X120678571Y-80702380D01*
X120535714Y-80702380D01*
X120440476Y-80654761D01*
X120392857Y-80607142D01*
X119916666Y-80702380D02*
X119916666Y-79702380D01*
X119916666Y-80083333D02*
X119821428Y-80035714D01*
X119630952Y-80035714D01*
X119535714Y-80083333D01*
X119488095Y-80130952D01*
X119440476Y-80226190D01*
X119440476Y-80511904D01*
X119488095Y-80607142D01*
X119535714Y-80654761D01*
X119630952Y-80702380D01*
X119821428Y-80702380D01*
X119916666Y-80654761D01*
X119011904Y-80607142D02*
X118964285Y-80654761D01*
X119011904Y-80702380D01*
X119059523Y-80654761D01*
X119011904Y-80607142D01*
X119011904Y-80702380D01*
X118107142Y-80654761D02*
X118202380Y-80702380D01*
X118392857Y-80702380D01*
X118488095Y-80654761D01*
X118535714Y-80607142D01*
X118583333Y-80511904D01*
X118583333Y-80226190D01*
X118535714Y-80130952D01*
X118488095Y-80083333D01*
X118392857Y-80035714D01*
X118202380Y-80035714D01*
X118107142Y-80083333D01*
X117535714Y-80702380D02*
X117630952Y-80654761D01*
X117678571Y-80607142D01*
X117726190Y-80511904D01*
X117726190Y-80226190D01*
X117678571Y-80130952D01*
X117630952Y-80083333D01*
X117535714Y-80035714D01*
X117392857Y-80035714D01*
X117297619Y-80083333D01*
X117250000Y-80130952D01*
X117202380Y-80226190D01*
X117202380Y-80511904D01*
X117250000Y-80607142D01*
X117297619Y-80654761D01*
X117392857Y-80702380D01*
X117535714Y-80702380D01*
X116773809Y-80702380D02*
X116773809Y-80035714D01*
X116773809Y-80130952D02*
X116726190Y-80083333D01*
X116630952Y-80035714D01*
X116488095Y-80035714D01*
X116392857Y-80083333D01*
X116345238Y-80178571D01*
X116345238Y-80702380D01*
X116345238Y-80178571D02*
X116297619Y-80083333D01*
X116202380Y-80035714D01*
X116059523Y-80035714D01*
X115964285Y-80083333D01*
X115916666Y-80178571D01*
X115916666Y-80702380D01*
X114726190Y-79654761D02*
X115583333Y-80940476D01*
X114440476Y-80654761D02*
X114345238Y-80702380D01*
X114154761Y-80702380D01*
X114059523Y-80654761D01*
X114011904Y-80559523D01*
X114011904Y-80511904D01*
X114059523Y-80416666D01*
X114154761Y-80369047D01*
X114297619Y-80369047D01*
X114392857Y-80321428D01*
X114440476Y-80226190D01*
X114440476Y-80178571D01*
X114392857Y-80083333D01*
X114297619Y-80035714D01*
X114154761Y-80035714D01*
X114059523Y-80083333D01*
X113726190Y-80035714D02*
X113345238Y-80035714D01*
X113583333Y-79702380D02*
X113583333Y-80559523D01*
X113535714Y-80654761D01*
X113440476Y-80702380D01*
X113345238Y-80702380D01*
X112630952Y-80654761D02*
X112726190Y-80702380D01*
X112916666Y-80702380D01*
X113011904Y-80654761D01*
X113059523Y-80559523D01*
X113059523Y-80178571D01*
X113011904Y-80083333D01*
X112916666Y-80035714D01*
X112726190Y-80035714D01*
X112630952Y-80083333D01*
X112583333Y-80178571D01*
X112583333Y-80273809D01*
X113059523Y-80369047D01*
X112154761Y-80035714D02*
X112154761Y-81035714D01*
X112154761Y-80083333D02*
X112059523Y-80035714D01*
X111869047Y-80035714D01*
X111773809Y-80083333D01*
X111726190Y-80130952D01*
X111678571Y-80226190D01*
X111678571Y-80511904D01*
X111726190Y-80607142D01*
X111773809Y-80654761D01*
X111869047Y-80702380D01*
X112059523Y-80702380D01*
X112154761Y-80654761D01*
X111250000Y-80702380D02*
X111250000Y-79702380D01*
X110821428Y-80702380D02*
X110821428Y-80178571D01*
X110869047Y-80083333D01*
X110964285Y-80035714D01*
X111107142Y-80035714D01*
X111202380Y-80083333D01*
X111250000Y-80130952D01*
X109964285Y-80654761D02*
X110059523Y-80702380D01*
X110250000Y-80702380D01*
X110345238Y-80654761D01*
X110392857Y-80559523D01*
X110392857Y-80178571D01*
X110345238Y-80083333D01*
X110250000Y-80035714D01*
X110059523Y-80035714D01*
X109964285Y-80083333D01*
X109916666Y-80178571D01*
X109916666Y-80273809D01*
X110392857Y-80369047D01*
X109488095Y-80035714D02*
X109488095Y-80702380D01*
X109488095Y-80130952D02*
X109440476Y-80083333D01*
X109345238Y-80035714D01*
X109202380Y-80035714D01*
X109107142Y-80083333D01*
X109059523Y-80178571D01*
X109059523Y-80702380D01*
X108154761Y-80702380D02*
X108154761Y-79702380D01*
X108154761Y-80654761D02*
X108250000Y-80702380D01*
X108440476Y-80702380D01*
X108535714Y-80654761D01*
X108583333Y-80607142D01*
X108630952Y-80511904D01*
X108630952Y-80226190D01*
X108583333Y-80130952D01*
X108535714Y-80083333D01*
X108440476Y-80035714D01*
X108250000Y-80035714D01*
X108154761Y-80083333D01*
X107678571Y-80035714D02*
X107678571Y-81035714D01*
X107678571Y-80083333D02*
X107583333Y-80035714D01*
X107392857Y-80035714D01*
X107297619Y-80083333D01*
X107250000Y-80130952D01*
X107202380Y-80226190D01*
X107202380Y-80511904D01*
X107250000Y-80607142D01*
X107297619Y-80654761D01*
X107392857Y-80702380D01*
X107583333Y-80702380D01*
X107678571Y-80654761D01*
X106773809Y-80702380D02*
X106773809Y-80035714D01*
X106773809Y-80130952D02*
X106726190Y-80083333D01*
X106630952Y-80035714D01*
X106488095Y-80035714D01*
X106392857Y-80083333D01*
X106345238Y-80178571D01*
X106345238Y-80702380D01*
X106345238Y-80178571D02*
X106297619Y-80083333D01*
X106202380Y-80035714D01*
X106059523Y-80035714D01*
X105964285Y-80083333D01*
X105916666Y-80178571D01*
X105916666Y-80702380D01*
X105011904Y-80035714D02*
X105011904Y-80702380D01*
X105440476Y-80035714D02*
X105440476Y-80559523D01*
X105392857Y-80654761D01*
X105297619Y-80702380D01*
X105154761Y-80702380D01*
X105059523Y-80654761D01*
X105011904Y-80607142D01*
X104535714Y-80702380D02*
X104535714Y-80035714D01*
X104535714Y-80226190D02*
X104488095Y-80130952D01*
X104440476Y-80083333D01*
X104345238Y-80035714D01*
X104250000Y-80035714D01*
X103916666Y-80035714D02*
X103916666Y-81035714D01*
X103916666Y-80083333D02*
X103821428Y-80035714D01*
X103630952Y-80035714D01*
X103535714Y-80083333D01*
X103488095Y-80130952D01*
X103440476Y-80226190D01*
X103440476Y-80511904D01*
X103488095Y-80607142D01*
X103535714Y-80654761D01*
X103630952Y-80702380D01*
X103821428Y-80702380D01*
X103916666Y-80654761D01*
X103011904Y-80702380D02*
X103011904Y-79702380D01*
X102583333Y-80702380D02*
X102583333Y-80178571D01*
X102630952Y-80083333D01*
X102726190Y-80035714D01*
X102869047Y-80035714D01*
X102964285Y-80083333D01*
X103011904Y-80130952D01*
X102202380Y-80035714D02*
X101964285Y-80702380D01*
X101726190Y-80035714D02*
X101964285Y-80702380D01*
X102059523Y-80940476D01*
X102107142Y-80988095D01*
X102202380Y-81035714D01*
M02*
