%TF.GenerationSoftware,KiCad,Pcbnew,5.1.6-c6e7f7d~87~ubuntu18.04.1*%
%TF.CreationDate,2020-07-27T20:58:04-04:00*%
%TF.ProjectId,nucleo-stlink-adapter,6e75636c-656f-42d7-9374-6c696e6b2d61,rev?*%
%TF.SameCoordinates,Original*%
%TF.FileFunction,Copper,L2,Bot*%
%TF.FilePolarity,Positive*%
%FSLAX46Y46*%
G04 Gerber Fmt 4.6, Leading zero omitted, Abs format (unit mm)*
G04 Created by KiCad (PCBNEW 5.1.6-c6e7f7d~87~ubuntu18.04.1) date 2020-07-27 20:58:04*
%MOMM*%
%LPD*%
G01*
G04 APERTURE LIST*
%TA.AperFunction,ComponentPad*%
%ADD10O,1.700000X1.700000*%
%TD*%
%TA.AperFunction,ComponentPad*%
%ADD11R,1.700000X1.700000*%
%TD*%
%TA.AperFunction,ViaPad*%
%ADD12C,0.800000*%
%TD*%
%TA.AperFunction,Conductor*%
%ADD13C,0.250000*%
%TD*%
%TA.AperFunction,Conductor*%
%ADD14C,0.254000*%
%TD*%
G04 APERTURE END LIST*
D10*
%TO.P,J2,6*%
%TO.N,SWO*%
X125730000Y-87630000D03*
%TO.P,J2,5*%
%TO.N,nRST*%
X125730000Y-85090000D03*
%TO.P,J2,4*%
%TO.N,SWDIO*%
X125730000Y-82550000D03*
%TO.P,J2,3*%
%TO.N,GND*%
X125730000Y-80010000D03*
%TO.P,J2,2*%
%TO.N,SWCLK*%
X125730000Y-77470000D03*
D11*
%TO.P,J2,1*%
%TO.N,VTARGET*%
X125730000Y-74930000D03*
%TD*%
D12*
%TO.N,SWDIO*%
X108275000Y-78750000D03*
%TO.N,SWCLK*%
X107500000Y-80000000D03*
%TD*%
D13*
%TO.N,SWDIO*%
X125730000Y-82550000D02*
X121930000Y-78750000D01*
X121930000Y-78750000D02*
X108275000Y-78750000D01*
%TO.N,SWCLK*%
X125730000Y-77470000D02*
X122829991Y-77470000D01*
X122049991Y-78250000D02*
X108848002Y-78250000D01*
X122829991Y-77470000D02*
X122049991Y-78250000D01*
X107500000Y-78451998D02*
X107500000Y-80000000D01*
X107926999Y-78024999D02*
X107500000Y-78451998D01*
X108623001Y-78024999D02*
X107926999Y-78024999D01*
X108848002Y-78250000D02*
X108623001Y-78024999D01*
%TD*%
D14*
%TO.N,GND*%
G36*
X127065424Y-73169580D02*
G01*
X127128356Y-73188580D01*
X127186405Y-73219445D01*
X127237343Y-73260989D01*
X127279248Y-73311644D01*
X127310515Y-73369471D01*
X127329956Y-73432272D01*
X127340000Y-73527835D01*
X127340001Y-88967711D01*
X127330420Y-89065424D01*
X127311420Y-89128357D01*
X127280554Y-89186406D01*
X127239011Y-89237343D01*
X127188356Y-89279248D01*
X127130529Y-89310515D01*
X127067728Y-89329956D01*
X126972165Y-89340000D01*
X124532279Y-89340000D01*
X124434576Y-89330420D01*
X124371643Y-89311420D01*
X124313594Y-89280554D01*
X124262657Y-89239011D01*
X124220752Y-89188356D01*
X124189485Y-89130529D01*
X124170044Y-89067728D01*
X124157176Y-88945292D01*
X124157260Y-88933199D01*
X124156360Y-88924028D01*
X124135959Y-88729931D01*
X124123934Y-88671348D01*
X124112723Y-88612577D01*
X124110059Y-88603755D01*
X124052347Y-88417317D01*
X124029162Y-88362162D01*
X124006758Y-88306709D01*
X124002432Y-88298573D01*
X123909607Y-88126896D01*
X123876139Y-88077278D01*
X123843400Y-88027247D01*
X123837576Y-88020106D01*
X123713172Y-87869728D01*
X123670737Y-87827589D01*
X123628874Y-87784839D01*
X123621773Y-87778966D01*
X123470531Y-87655616D01*
X123420738Y-87622534D01*
X123371349Y-87588716D01*
X123363243Y-87584333D01*
X123190921Y-87492708D01*
X123135606Y-87469909D01*
X123080634Y-87446348D01*
X123071831Y-87443623D01*
X122884995Y-87387214D01*
X122826307Y-87375594D01*
X122767804Y-87363158D01*
X122758639Y-87362195D01*
X122564405Y-87343150D01*
X122564402Y-87343150D01*
X122532419Y-87340000D01*
X100032279Y-87340000D01*
X99934576Y-87330420D01*
X99871643Y-87311420D01*
X99813594Y-87280554D01*
X99762657Y-87239011D01*
X99720752Y-87188356D01*
X99689485Y-87130529D01*
X99670044Y-87067728D01*
X99660000Y-86972165D01*
X99660000Y-79898061D01*
X106465000Y-79898061D01*
X106465000Y-80101939D01*
X106504774Y-80301898D01*
X106582795Y-80490256D01*
X106696063Y-80659774D01*
X106840226Y-80803937D01*
X107009744Y-80917205D01*
X107198102Y-80995226D01*
X107398061Y-81035000D01*
X107601939Y-81035000D01*
X107801898Y-80995226D01*
X107990256Y-80917205D01*
X108159774Y-80803937D01*
X108303937Y-80659774D01*
X108417205Y-80490256D01*
X108495226Y-80301898D01*
X108535000Y-80101939D01*
X108535000Y-79898061D01*
X108507351Y-79759060D01*
X108576898Y-79745226D01*
X108765256Y-79667205D01*
X108934774Y-79553937D01*
X108978711Y-79510000D01*
X121615199Y-79510000D01*
X124288790Y-82183592D01*
X124245000Y-82403740D01*
X124245000Y-82696260D01*
X124302068Y-82983158D01*
X124414010Y-83253411D01*
X124576525Y-83496632D01*
X124783368Y-83703475D01*
X124957760Y-83820000D01*
X124783368Y-83936525D01*
X124576525Y-84143368D01*
X124414010Y-84386589D01*
X124302068Y-84656842D01*
X124245000Y-84943740D01*
X124245000Y-85236260D01*
X124302068Y-85523158D01*
X124414010Y-85793411D01*
X124576525Y-86036632D01*
X124783368Y-86243475D01*
X124957760Y-86360000D01*
X124783368Y-86476525D01*
X124576525Y-86683368D01*
X124414010Y-86926589D01*
X124302068Y-87196842D01*
X124245000Y-87483740D01*
X124245000Y-87776260D01*
X124302068Y-88063158D01*
X124414010Y-88333411D01*
X124576525Y-88576632D01*
X124783368Y-88783475D01*
X125026589Y-88945990D01*
X125296842Y-89057932D01*
X125583740Y-89115000D01*
X125876260Y-89115000D01*
X126163158Y-89057932D01*
X126433411Y-88945990D01*
X126676632Y-88783475D01*
X126883475Y-88576632D01*
X127045990Y-88333411D01*
X127157932Y-88063158D01*
X127215000Y-87776260D01*
X127215000Y-87483740D01*
X127157932Y-87196842D01*
X127045990Y-86926589D01*
X126883475Y-86683368D01*
X126676632Y-86476525D01*
X126502240Y-86360000D01*
X126676632Y-86243475D01*
X126883475Y-86036632D01*
X127045990Y-85793411D01*
X127157932Y-85523158D01*
X127215000Y-85236260D01*
X127215000Y-84943740D01*
X127157932Y-84656842D01*
X127045990Y-84386589D01*
X126883475Y-84143368D01*
X126676632Y-83936525D01*
X126502240Y-83820000D01*
X126676632Y-83703475D01*
X126883475Y-83496632D01*
X127045990Y-83253411D01*
X127157932Y-82983158D01*
X127215000Y-82696260D01*
X127215000Y-82403740D01*
X127157932Y-82116842D01*
X127045990Y-81846589D01*
X126883475Y-81603368D01*
X126676632Y-81396525D01*
X126494466Y-81274805D01*
X126611355Y-81205178D01*
X126827588Y-81010269D01*
X127001641Y-80776920D01*
X127126825Y-80514099D01*
X127171476Y-80366890D01*
X127050155Y-80137000D01*
X125857000Y-80137000D01*
X125857000Y-80157000D01*
X125603000Y-80157000D01*
X125603000Y-80137000D01*
X125583000Y-80137000D01*
X125583000Y-79883000D01*
X125603000Y-79883000D01*
X125603000Y-79863000D01*
X125857000Y-79863000D01*
X125857000Y-79883000D01*
X127050155Y-79883000D01*
X127171476Y-79653110D01*
X127126825Y-79505901D01*
X127001641Y-79243080D01*
X126827588Y-79009731D01*
X126611355Y-78814822D01*
X126494466Y-78745195D01*
X126676632Y-78623475D01*
X126883475Y-78416632D01*
X127045990Y-78173411D01*
X127157932Y-77903158D01*
X127215000Y-77616260D01*
X127215000Y-77323740D01*
X127157932Y-77036842D01*
X127045990Y-76766589D01*
X126883475Y-76523368D01*
X126751620Y-76391513D01*
X126824180Y-76369502D01*
X126934494Y-76310537D01*
X127031185Y-76231185D01*
X127110537Y-76134494D01*
X127169502Y-76024180D01*
X127205812Y-75904482D01*
X127218072Y-75780000D01*
X127218072Y-74080000D01*
X127205812Y-73955518D01*
X127169502Y-73835820D01*
X127110537Y-73725506D01*
X127031185Y-73628815D01*
X126934494Y-73549463D01*
X126824180Y-73490498D01*
X126704482Y-73454188D01*
X126580000Y-73441928D01*
X124880000Y-73441928D01*
X124755518Y-73454188D01*
X124635820Y-73490498D01*
X124525506Y-73549463D01*
X124428815Y-73628815D01*
X124349463Y-73725506D01*
X124290498Y-73835820D01*
X124254188Y-73955518D01*
X124241928Y-74080000D01*
X124241928Y-75780000D01*
X124254188Y-75904482D01*
X124290498Y-76024180D01*
X124349463Y-76134494D01*
X124428815Y-76231185D01*
X124525506Y-76310537D01*
X124635820Y-76369502D01*
X124708380Y-76391513D01*
X124576525Y-76523368D01*
X124451822Y-76710000D01*
X122867324Y-76710000D01*
X122829991Y-76706323D01*
X122792658Y-76710000D01*
X122681005Y-76720997D01*
X122537744Y-76764454D01*
X122405715Y-76835026D01*
X122289990Y-76929999D01*
X122266192Y-76958998D01*
X121735190Y-77490000D01*
X109167107Y-77490000D01*
X109163002Y-77484998D01*
X109047277Y-77390025D01*
X108915248Y-77319453D01*
X108771987Y-77275996D01*
X108660334Y-77264999D01*
X108660323Y-77264999D01*
X108623001Y-77261323D01*
X108585679Y-77264999D01*
X107964324Y-77264999D01*
X107926999Y-77261323D01*
X107889674Y-77264999D01*
X107889666Y-77264999D01*
X107778013Y-77275996D01*
X107634752Y-77319453D01*
X107502723Y-77390025D01*
X107386998Y-77484998D01*
X107363195Y-77514002D01*
X106989003Y-77888194D01*
X106959999Y-77911997D01*
X106922448Y-77957754D01*
X106865026Y-78027722D01*
X106825850Y-78101015D01*
X106794454Y-78159752D01*
X106750997Y-78303013D01*
X106740000Y-78414666D01*
X106740000Y-78414676D01*
X106736324Y-78451998D01*
X106740000Y-78489321D01*
X106740001Y-79296288D01*
X106696063Y-79340226D01*
X106582795Y-79509744D01*
X106504774Y-79698102D01*
X106465000Y-79898061D01*
X99660000Y-79898061D01*
X99660000Y-75532279D01*
X99669580Y-75434576D01*
X99688580Y-75371644D01*
X99719445Y-75313595D01*
X99760989Y-75262657D01*
X99811644Y-75220752D01*
X99869471Y-75189485D01*
X99932272Y-75170044D01*
X100027835Y-75160000D01*
X122532419Y-75160000D01*
X122560674Y-75157217D01*
X122566801Y-75157260D01*
X122575972Y-75156360D01*
X122770069Y-75135959D01*
X122828658Y-75123932D01*
X122887423Y-75112723D01*
X122896245Y-75110059D01*
X123082683Y-75052347D01*
X123137838Y-75029162D01*
X123193291Y-75006758D01*
X123201427Y-75002432D01*
X123373104Y-74909607D01*
X123422699Y-74876154D01*
X123472753Y-74843400D01*
X123479894Y-74837576D01*
X123630272Y-74713172D01*
X123672411Y-74670737D01*
X123715161Y-74628874D01*
X123721034Y-74621773D01*
X123844384Y-74470531D01*
X123877477Y-74420723D01*
X123911284Y-74371349D01*
X123915667Y-74363243D01*
X124007292Y-74190920D01*
X124030090Y-74135608D01*
X124053652Y-74080634D01*
X124056377Y-74071831D01*
X124112786Y-73884994D01*
X124124405Y-73826314D01*
X124136842Y-73767804D01*
X124137805Y-73758639D01*
X124156850Y-73564406D01*
X124156850Y-73564404D01*
X124169580Y-73434576D01*
X124188580Y-73371644D01*
X124219445Y-73313595D01*
X124260989Y-73262657D01*
X124311644Y-73220752D01*
X124369471Y-73189485D01*
X124432272Y-73170044D01*
X124527835Y-73160000D01*
X126967721Y-73160000D01*
X127065424Y-73169580D01*
G37*
X127065424Y-73169580D02*
X127128356Y-73188580D01*
X127186405Y-73219445D01*
X127237343Y-73260989D01*
X127279248Y-73311644D01*
X127310515Y-73369471D01*
X127329956Y-73432272D01*
X127340000Y-73527835D01*
X127340001Y-88967711D01*
X127330420Y-89065424D01*
X127311420Y-89128357D01*
X127280554Y-89186406D01*
X127239011Y-89237343D01*
X127188356Y-89279248D01*
X127130529Y-89310515D01*
X127067728Y-89329956D01*
X126972165Y-89340000D01*
X124532279Y-89340000D01*
X124434576Y-89330420D01*
X124371643Y-89311420D01*
X124313594Y-89280554D01*
X124262657Y-89239011D01*
X124220752Y-89188356D01*
X124189485Y-89130529D01*
X124170044Y-89067728D01*
X124157176Y-88945292D01*
X124157260Y-88933199D01*
X124156360Y-88924028D01*
X124135959Y-88729931D01*
X124123934Y-88671348D01*
X124112723Y-88612577D01*
X124110059Y-88603755D01*
X124052347Y-88417317D01*
X124029162Y-88362162D01*
X124006758Y-88306709D01*
X124002432Y-88298573D01*
X123909607Y-88126896D01*
X123876139Y-88077278D01*
X123843400Y-88027247D01*
X123837576Y-88020106D01*
X123713172Y-87869728D01*
X123670737Y-87827589D01*
X123628874Y-87784839D01*
X123621773Y-87778966D01*
X123470531Y-87655616D01*
X123420738Y-87622534D01*
X123371349Y-87588716D01*
X123363243Y-87584333D01*
X123190921Y-87492708D01*
X123135606Y-87469909D01*
X123080634Y-87446348D01*
X123071831Y-87443623D01*
X122884995Y-87387214D01*
X122826307Y-87375594D01*
X122767804Y-87363158D01*
X122758639Y-87362195D01*
X122564405Y-87343150D01*
X122564402Y-87343150D01*
X122532419Y-87340000D01*
X100032279Y-87340000D01*
X99934576Y-87330420D01*
X99871643Y-87311420D01*
X99813594Y-87280554D01*
X99762657Y-87239011D01*
X99720752Y-87188356D01*
X99689485Y-87130529D01*
X99670044Y-87067728D01*
X99660000Y-86972165D01*
X99660000Y-79898061D01*
X106465000Y-79898061D01*
X106465000Y-80101939D01*
X106504774Y-80301898D01*
X106582795Y-80490256D01*
X106696063Y-80659774D01*
X106840226Y-80803937D01*
X107009744Y-80917205D01*
X107198102Y-80995226D01*
X107398061Y-81035000D01*
X107601939Y-81035000D01*
X107801898Y-80995226D01*
X107990256Y-80917205D01*
X108159774Y-80803937D01*
X108303937Y-80659774D01*
X108417205Y-80490256D01*
X108495226Y-80301898D01*
X108535000Y-80101939D01*
X108535000Y-79898061D01*
X108507351Y-79759060D01*
X108576898Y-79745226D01*
X108765256Y-79667205D01*
X108934774Y-79553937D01*
X108978711Y-79510000D01*
X121615199Y-79510000D01*
X124288790Y-82183592D01*
X124245000Y-82403740D01*
X124245000Y-82696260D01*
X124302068Y-82983158D01*
X124414010Y-83253411D01*
X124576525Y-83496632D01*
X124783368Y-83703475D01*
X124957760Y-83820000D01*
X124783368Y-83936525D01*
X124576525Y-84143368D01*
X124414010Y-84386589D01*
X124302068Y-84656842D01*
X124245000Y-84943740D01*
X124245000Y-85236260D01*
X124302068Y-85523158D01*
X124414010Y-85793411D01*
X124576525Y-86036632D01*
X124783368Y-86243475D01*
X124957760Y-86360000D01*
X124783368Y-86476525D01*
X124576525Y-86683368D01*
X124414010Y-86926589D01*
X124302068Y-87196842D01*
X124245000Y-87483740D01*
X124245000Y-87776260D01*
X124302068Y-88063158D01*
X124414010Y-88333411D01*
X124576525Y-88576632D01*
X124783368Y-88783475D01*
X125026589Y-88945990D01*
X125296842Y-89057932D01*
X125583740Y-89115000D01*
X125876260Y-89115000D01*
X126163158Y-89057932D01*
X126433411Y-88945990D01*
X126676632Y-88783475D01*
X126883475Y-88576632D01*
X127045990Y-88333411D01*
X127157932Y-88063158D01*
X127215000Y-87776260D01*
X127215000Y-87483740D01*
X127157932Y-87196842D01*
X127045990Y-86926589D01*
X126883475Y-86683368D01*
X126676632Y-86476525D01*
X126502240Y-86360000D01*
X126676632Y-86243475D01*
X126883475Y-86036632D01*
X127045990Y-85793411D01*
X127157932Y-85523158D01*
X127215000Y-85236260D01*
X127215000Y-84943740D01*
X127157932Y-84656842D01*
X127045990Y-84386589D01*
X126883475Y-84143368D01*
X126676632Y-83936525D01*
X126502240Y-83820000D01*
X126676632Y-83703475D01*
X126883475Y-83496632D01*
X127045990Y-83253411D01*
X127157932Y-82983158D01*
X127215000Y-82696260D01*
X127215000Y-82403740D01*
X127157932Y-82116842D01*
X127045990Y-81846589D01*
X126883475Y-81603368D01*
X126676632Y-81396525D01*
X126494466Y-81274805D01*
X126611355Y-81205178D01*
X126827588Y-81010269D01*
X127001641Y-80776920D01*
X127126825Y-80514099D01*
X127171476Y-80366890D01*
X127050155Y-80137000D01*
X125857000Y-80137000D01*
X125857000Y-80157000D01*
X125603000Y-80157000D01*
X125603000Y-80137000D01*
X125583000Y-80137000D01*
X125583000Y-79883000D01*
X125603000Y-79883000D01*
X125603000Y-79863000D01*
X125857000Y-79863000D01*
X125857000Y-79883000D01*
X127050155Y-79883000D01*
X127171476Y-79653110D01*
X127126825Y-79505901D01*
X127001641Y-79243080D01*
X126827588Y-79009731D01*
X126611355Y-78814822D01*
X126494466Y-78745195D01*
X126676632Y-78623475D01*
X126883475Y-78416632D01*
X127045990Y-78173411D01*
X127157932Y-77903158D01*
X127215000Y-77616260D01*
X127215000Y-77323740D01*
X127157932Y-77036842D01*
X127045990Y-76766589D01*
X126883475Y-76523368D01*
X126751620Y-76391513D01*
X126824180Y-76369502D01*
X126934494Y-76310537D01*
X127031185Y-76231185D01*
X127110537Y-76134494D01*
X127169502Y-76024180D01*
X127205812Y-75904482D01*
X127218072Y-75780000D01*
X127218072Y-74080000D01*
X127205812Y-73955518D01*
X127169502Y-73835820D01*
X127110537Y-73725506D01*
X127031185Y-73628815D01*
X126934494Y-73549463D01*
X126824180Y-73490498D01*
X126704482Y-73454188D01*
X126580000Y-73441928D01*
X124880000Y-73441928D01*
X124755518Y-73454188D01*
X124635820Y-73490498D01*
X124525506Y-73549463D01*
X124428815Y-73628815D01*
X124349463Y-73725506D01*
X124290498Y-73835820D01*
X124254188Y-73955518D01*
X124241928Y-74080000D01*
X124241928Y-75780000D01*
X124254188Y-75904482D01*
X124290498Y-76024180D01*
X124349463Y-76134494D01*
X124428815Y-76231185D01*
X124525506Y-76310537D01*
X124635820Y-76369502D01*
X124708380Y-76391513D01*
X124576525Y-76523368D01*
X124451822Y-76710000D01*
X122867324Y-76710000D01*
X122829991Y-76706323D01*
X122792658Y-76710000D01*
X122681005Y-76720997D01*
X122537744Y-76764454D01*
X122405715Y-76835026D01*
X122289990Y-76929999D01*
X122266192Y-76958998D01*
X121735190Y-77490000D01*
X109167107Y-77490000D01*
X109163002Y-77484998D01*
X109047277Y-77390025D01*
X108915248Y-77319453D01*
X108771987Y-77275996D01*
X108660334Y-77264999D01*
X108660323Y-77264999D01*
X108623001Y-77261323D01*
X108585679Y-77264999D01*
X107964324Y-77264999D01*
X107926999Y-77261323D01*
X107889674Y-77264999D01*
X107889666Y-77264999D01*
X107778013Y-77275996D01*
X107634752Y-77319453D01*
X107502723Y-77390025D01*
X107386998Y-77484998D01*
X107363195Y-77514002D01*
X106989003Y-77888194D01*
X106959999Y-77911997D01*
X106922448Y-77957754D01*
X106865026Y-78027722D01*
X106825850Y-78101015D01*
X106794454Y-78159752D01*
X106750997Y-78303013D01*
X106740000Y-78414666D01*
X106740000Y-78414676D01*
X106736324Y-78451998D01*
X106740000Y-78489321D01*
X106740001Y-79296288D01*
X106696063Y-79340226D01*
X106582795Y-79509744D01*
X106504774Y-79698102D01*
X106465000Y-79898061D01*
X99660000Y-79898061D01*
X99660000Y-75532279D01*
X99669580Y-75434576D01*
X99688580Y-75371644D01*
X99719445Y-75313595D01*
X99760989Y-75262657D01*
X99811644Y-75220752D01*
X99869471Y-75189485D01*
X99932272Y-75170044D01*
X100027835Y-75160000D01*
X122532419Y-75160000D01*
X122560674Y-75157217D01*
X122566801Y-75157260D01*
X122575972Y-75156360D01*
X122770069Y-75135959D01*
X122828658Y-75123932D01*
X122887423Y-75112723D01*
X122896245Y-75110059D01*
X123082683Y-75052347D01*
X123137838Y-75029162D01*
X123193291Y-75006758D01*
X123201427Y-75002432D01*
X123373104Y-74909607D01*
X123422699Y-74876154D01*
X123472753Y-74843400D01*
X123479894Y-74837576D01*
X123630272Y-74713172D01*
X123672411Y-74670737D01*
X123715161Y-74628874D01*
X123721034Y-74621773D01*
X123844384Y-74470531D01*
X123877477Y-74420723D01*
X123911284Y-74371349D01*
X123915667Y-74363243D01*
X124007292Y-74190920D01*
X124030090Y-74135608D01*
X124053652Y-74080634D01*
X124056377Y-74071831D01*
X124112786Y-73884994D01*
X124124405Y-73826314D01*
X124136842Y-73767804D01*
X124137805Y-73758639D01*
X124156850Y-73564406D01*
X124156850Y-73564404D01*
X124169580Y-73434576D01*
X124188580Y-73371644D01*
X124219445Y-73313595D01*
X124260989Y-73262657D01*
X124311644Y-73220752D01*
X124369471Y-73189485D01*
X124432272Y-73170044D01*
X124527835Y-73160000D01*
X126967721Y-73160000D01*
X127065424Y-73169580D01*
%TD*%
M02*
